<mxfile host="app.diagrams.net" agent="Mozilla/5.0 (Windows NT 10.0; Win64; x64) AppleWebKit/537.36 (KHTML, like Gecko) Chrome/139.0.0.0 Safari/537.36" version="28.1.1">
  <diagram name="Page-1" id="i7D0AKqKZrmszcRMOEjn">
    <mxGraphModel dx="670" dy="1467" grid="1" gridSize="10" guides="1" tooltips="1" connect="1" arrows="1" fold="1" page="1" pageScale="1" pageWidth="850" pageHeight="1100" math="0" shadow="0">
      <root>
        <mxCell id="0" />
        <mxCell id="1" parent="0" />
        <mxCell id="4MjrCWM2MR1hanmfeFmO-1" value="" style="rounded=0;whiteSpace=wrap;html=1;" parent="1" vertex="1">
          <mxGeometry x="210" y="-1050" width="240" height="50" as="geometry" />
        </mxCell>
        <mxCell id="4MjrCWM2MR1hanmfeFmO-5" value="" style="ellipse;whiteSpace=wrap;html=1;" parent="1" vertex="1">
          <mxGeometry x="210" y="120" width="80" height="80" as="geometry" />
        </mxCell>
        <mxCell id="4MjrCWM2MR1hanmfeFmO-6" value="" style="ellipse;whiteSpace=wrap;html=1;" parent="1" vertex="1">
          <mxGeometry x="40" y="110" width="80" height="80" as="geometry" />
        </mxCell>
        <mxCell id="4MjrCWM2MR1hanmfeFmO-7" value="" style="ellipse;whiteSpace=wrap;html=1;" parent="1" vertex="1">
          <mxGeometry x="40" y="240" width="80" height="80" as="geometry" />
        </mxCell>
        <mxCell id="4MjrCWM2MR1hanmfeFmO-9" value="" style="endArrow=classic;html=1;rounded=0;exitX=0.5;exitY=1;exitDx=0;exitDy=0;" parent="1" source="4MjrCWM2MR1hanmfeFmO-6" edge="1">
          <mxGeometry width="50" height="50" relative="1" as="geometry">
            <mxPoint x="320" y="260" as="sourcePoint" />
            <mxPoint x="80" y="240" as="targetPoint" />
          </mxGeometry>
        </mxCell>
        <mxCell id="4MjrCWM2MR1hanmfeFmO-11" value="" style="whiteSpace=wrap;html=1;" parent="1" vertex="1">
          <mxGeometry x="10" y="370" width="120" height="60" as="geometry" />
        </mxCell>
        <mxCell id="4MjrCWM2MR1hanmfeFmO-12" value="" style="whiteSpace=wrap;html=1;" parent="1" vertex="1">
          <mxGeometry x="150" y="370" width="120" height="60" as="geometry" />
        </mxCell>
        <mxCell id="4MjrCWM2MR1hanmfeFmO-13" value="" style="whiteSpace=wrap;html=1;" parent="1" vertex="1">
          <mxGeometry x="300" y="370" width="120" height="60" as="geometry" />
        </mxCell>
        <mxCell id="4MjrCWM2MR1hanmfeFmO-48" value="" style="edgeStyle=orthogonalEdgeStyle;rounded=0;orthogonalLoop=1;jettySize=auto;html=1;" parent="1" source="4MjrCWM2MR1hanmfeFmO-16" target="4MjrCWM2MR1hanmfeFmO-24" edge="1">
          <mxGeometry relative="1" as="geometry" />
        </mxCell>
        <mxCell id="4MjrCWM2MR1hanmfeFmO-16" value="" style="rounded=0;whiteSpace=wrap;html=1;" parent="1" vertex="1">
          <mxGeometry x="20" y="-950" width="130" height="60" as="geometry" />
        </mxCell>
        <mxCell id="4MjrCWM2MR1hanmfeFmO-17" value="" style="ellipse;whiteSpace=wrap;html=1;aspect=fixed;" parent="1" vertex="1">
          <mxGeometry x="40" y="-840" width="80" height="80" as="geometry" />
        </mxCell>
        <mxCell id="4MjrCWM2MR1hanmfeFmO-18" value="" style="ellipse;whiteSpace=wrap;html=1;aspect=fixed;" parent="1" vertex="1">
          <mxGeometry x="40" y="-710" width="80" height="80" as="geometry" />
        </mxCell>
        <mxCell id="4MjrCWM2MR1hanmfeFmO-19" value="" style="endArrow=classic;html=1;rounded=0;" parent="1" edge="1">
          <mxGeometry width="50" height="50" relative="1" as="geometry">
            <mxPoint x="79.5" y="-880" as="sourcePoint" />
            <mxPoint x="79.5" y="-850" as="targetPoint" />
          </mxGeometry>
        </mxCell>
        <mxCell id="4MjrCWM2MR1hanmfeFmO-20" value="" style="endArrow=classic;html=1;rounded=0;" parent="1" edge="1">
          <mxGeometry width="50" height="50" relative="1" as="geometry">
            <mxPoint x="80" y="-750" as="sourcePoint" />
            <mxPoint x="80" y="-720" as="targetPoint" />
          </mxGeometry>
        </mxCell>
        <mxCell id="4MjrCWM2MR1hanmfeFmO-21" value="" style="ellipse;whiteSpace=wrap;html=1;aspect=fixed;" parent="1" vertex="1">
          <mxGeometry x="330" y="-830" width="80" height="80" as="geometry" />
        </mxCell>
        <mxCell id="4MjrCWM2MR1hanmfeFmO-22" value="" style="ellipse;whiteSpace=wrap;html=1;aspect=fixed;" parent="1" vertex="1">
          <mxGeometry x="210" y="-830" width="80" height="80" as="geometry" />
        </mxCell>
        <mxCell id="4MjrCWM2MR1hanmfeFmO-36" value="" style="edgeStyle=orthogonalEdgeStyle;rounded=0;orthogonalLoop=1;jettySize=auto;html=1;" parent="1" source="4MjrCWM2MR1hanmfeFmO-23" target="4MjrCWM2MR1hanmfeFmO-21" edge="1">
          <mxGeometry relative="1" as="geometry" />
        </mxCell>
        <mxCell id="4MjrCWM2MR1hanmfeFmO-23" value="" style="ellipse;whiteSpace=wrap;html=1;aspect=fixed;" parent="1" vertex="1">
          <mxGeometry x="330" y="-960" width="80" height="80" as="geometry" />
        </mxCell>
        <mxCell id="4MjrCWM2MR1hanmfeFmO-35" value="" style="edgeStyle=orthogonalEdgeStyle;rounded=0;orthogonalLoop=1;jettySize=auto;html=1;" parent="1" source="4MjrCWM2MR1hanmfeFmO-24" target="4MjrCWM2MR1hanmfeFmO-22" edge="1">
          <mxGeometry relative="1" as="geometry" />
        </mxCell>
        <mxCell id="4MjrCWM2MR1hanmfeFmO-24" value="" style="ellipse;whiteSpace=wrap;html=1;aspect=fixed;" parent="1" vertex="1">
          <mxGeometry x="210" y="-960" width="80" height="80" as="geometry" />
        </mxCell>
        <mxCell id="4MjrCWM2MR1hanmfeFmO-25" value="" style="rounded=0;whiteSpace=wrap;html=1;" parent="1" vertex="1">
          <mxGeometry x="490" y="-570" width="120" height="60" as="geometry" />
        </mxCell>
        <mxCell id="4MjrCWM2MR1hanmfeFmO-26" value="" style="rounded=0;whiteSpace=wrap;html=1;" parent="1" vertex="1">
          <mxGeometry x="490" y="-640" width="120" height="60" as="geometry" />
        </mxCell>
        <mxCell id="4MjrCWM2MR1hanmfeFmO-27" value="" style="rounded=0;whiteSpace=wrap;html=1;" parent="1" vertex="1">
          <mxGeometry x="490" y="-710" width="120" height="60" as="geometry" />
        </mxCell>
        <mxCell id="4MjrCWM2MR1hanmfeFmO-28" value="" style="rounded=0;whiteSpace=wrap;html=1;" parent="1" vertex="1">
          <mxGeometry x="490" y="-780" width="120" height="60" as="geometry" />
        </mxCell>
        <mxCell id="4MjrCWM2MR1hanmfeFmO-29" value="" style="rounded=0;whiteSpace=wrap;html=1;" parent="1" vertex="1">
          <mxGeometry x="490" y="-850" width="120" height="60" as="geometry" />
        </mxCell>
        <mxCell id="4MjrCWM2MR1hanmfeFmO-30" value="" style="rounded=0;whiteSpace=wrap;html=1;" parent="1" vertex="1">
          <mxGeometry x="490" y="-920" width="120" height="60" as="geometry" />
        </mxCell>
        <mxCell id="4MjrCWM2MR1hanmfeFmO-31" value="" style="rounded=0;whiteSpace=wrap;html=1;" parent="1" vertex="1">
          <mxGeometry x="490" y="-990" width="120" height="60" as="geometry" />
        </mxCell>
        <mxCell id="4MjrCWM2MR1hanmfeFmO-32" value="" style="rounded=0;whiteSpace=wrap;html=1;" parent="1" vertex="1">
          <mxGeometry x="350" y="-600" width="120" height="60" as="geometry" />
        </mxCell>
        <mxCell id="4MjrCWM2MR1hanmfeFmO-33" value="" style="rounded=0;whiteSpace=wrap;html=1;" parent="1" vertex="1">
          <mxGeometry x="210" y="-600" width="120" height="60" as="geometry" />
        </mxCell>
        <mxCell id="4MjrCWM2MR1hanmfeFmO-34" value="" style="rounded=0;whiteSpace=wrap;html=1;" parent="1" vertex="1">
          <mxGeometry x="70" y="-600" width="120" height="60" as="geometry" />
        </mxCell>
        <mxCell id="4MjrCWM2MR1hanmfeFmO-37" value="" style="endArrow=classic;html=1;rounded=0;" parent="1" edge="1">
          <mxGeometry width="50" height="50" relative="1" as="geometry">
            <mxPoint x="410" y="-830" as="sourcePoint" />
            <mxPoint x="460" y="-920" as="targetPoint" />
          </mxGeometry>
        </mxCell>
        <mxCell id="4MjrCWM2MR1hanmfeFmO-38" value="" style="endArrow=classic;html=1;rounded=0;" parent="1" edge="1">
          <mxGeometry width="50" height="50" relative="1" as="geometry">
            <mxPoint x="420" y="-810" as="sourcePoint" />
            <mxPoint x="480" y="-880" as="targetPoint" />
          </mxGeometry>
        </mxCell>
        <mxCell id="4MjrCWM2MR1hanmfeFmO-39" value="" style="endArrow=classic;html=1;rounded=0;" parent="1" edge="1">
          <mxGeometry width="50" height="50" relative="1" as="geometry">
            <mxPoint x="420" y="-800" as="sourcePoint" />
            <mxPoint x="470" y="-800" as="targetPoint" />
          </mxGeometry>
        </mxCell>
        <mxCell id="4MjrCWM2MR1hanmfeFmO-40" value="" style="endArrow=classic;html=1;rounded=0;" parent="1" edge="1">
          <mxGeometry width="50" height="50" relative="1" as="geometry">
            <mxPoint x="420" y="-780" as="sourcePoint" />
            <mxPoint x="480" y="-750" as="targetPoint" />
          </mxGeometry>
        </mxCell>
        <mxCell id="4MjrCWM2MR1hanmfeFmO-41" value="" style="endArrow=classic;html=1;rounded=0;" parent="1" edge="1">
          <mxGeometry width="50" height="50" relative="1" as="geometry">
            <mxPoint x="420" y="-760" as="sourcePoint" />
            <mxPoint x="470" y="-700" as="targetPoint" />
          </mxGeometry>
        </mxCell>
        <mxCell id="4MjrCWM2MR1hanmfeFmO-42" value="" style="endArrow=classic;html=1;rounded=0;" parent="1" edge="1">
          <mxGeometry width="50" height="50" relative="1" as="geometry">
            <mxPoint x="410" y="-740" as="sourcePoint" />
            <mxPoint x="470" y="-660" as="targetPoint" />
          </mxGeometry>
        </mxCell>
        <mxCell id="4MjrCWM2MR1hanmfeFmO-43" value="" style="endArrow=classic;html=1;rounded=0;" parent="1" edge="1">
          <mxGeometry width="50" height="50" relative="1" as="geometry">
            <mxPoint x="390" y="-740" as="sourcePoint" />
            <mxPoint x="480" y="-610" as="targetPoint" />
          </mxGeometry>
        </mxCell>
        <mxCell id="4MjrCWM2MR1hanmfeFmO-44" value="" style="endArrow=classic;html=1;rounded=0;" parent="1" edge="1">
          <mxGeometry width="50" height="50" relative="1" as="geometry">
            <mxPoint x="350" y="-730" as="sourcePoint" />
            <mxPoint x="180" y="-630" as="targetPoint" />
          </mxGeometry>
        </mxCell>
        <mxCell id="4MjrCWM2MR1hanmfeFmO-45" value="" style="endArrow=classic;html=1;rounded=0;" parent="1" edge="1">
          <mxGeometry width="50" height="50" relative="1" as="geometry">
            <mxPoint x="360" y="-720" as="sourcePoint" />
            <mxPoint x="290" y="-620" as="targetPoint" />
          </mxGeometry>
        </mxCell>
        <mxCell id="4MjrCWM2MR1hanmfeFmO-46" value="" style="endArrow=classic;html=1;rounded=0;" parent="1" edge="1">
          <mxGeometry width="50" height="50" relative="1" as="geometry">
            <mxPoint x="380" y="-720" as="sourcePoint" />
            <mxPoint x="390" y="-620" as="targetPoint" />
          </mxGeometry>
        </mxCell>
        <mxCell id="4MjrCWM2MR1hanmfeFmO-47" value="" style="endArrow=classic;html=1;rounded=0;" parent="1" edge="1">
          <mxGeometry width="50" height="50" relative="1" as="geometry">
            <mxPoint x="290" y="-820" as="sourcePoint" />
            <mxPoint x="330" y="-880" as="targetPoint" />
          </mxGeometry>
        </mxCell>
      </root>
    </mxGraphModel>
  </diagram>
</mxfile>
